Coordinates
version=1
nRows=14
nColumns=36
inDegrees=yes

Units are S.I. units (second, meters, Newtons, ...)
If the header above contains a line with 'inDegrees', this indicates whether rotational values are in degrees (yes) or radians (no).

endheader
time	pelvis_tilt	pelvis_list	pelvis_rotation	pelvis_tx	pelvis_ty	pelvis_tz	hip_flexion_r	hip_adduction_r	hip_rotation_r	knee_angle_r	knee_angle_r_beta	ankle_angle_r	subtalar_angle_r	mtp_angle_r	hip_flexion_l	hip_adduction_l	hip_rotation_l	knee_angle_l	knee_angle_l_beta	ankle_angle_l	subtalar_angle_l	mtp_angle_l	lumbar_extension	lumbar_bending	lumbar_rotation	arm_flex_r	arm_add_r	arm_rot_r	elbow_flex_r	pro_sup_r	arm_flex_l	arm_add_l	arm_rot_l	elbow_flex_l	pro_sup_l
      1.38750000	    -20.70374465	     -0.22399641	      4.59248263	     -0.65672368	      1.21388973	     -0.07783102	     16.69729865	      0.79326971	      3.57968080	     36.31915893	      0.63388890	     17.67584174	    -30.09610892	     -7.49999987	     25.72397663	     -0.72321325	      2.57784472	     50.96708423	      0.88954343	     11.04112877	    -18.10726422	     -7.49999987	     -7.51965829	      1.47229473	      0.03937018	     84.58843699	    -36.48928329	     23.06830813	    116.88412928	     93.25868479	     92.94136197	    -37.61061919	     42.23386698	    122.74935786	     88.61505468
      1.39166670	    -20.31800769	     -0.44528059	      4.69321301	     -0.64440117	      1.22102795	     -0.06985914	     15.64626778	      1.16335188	      3.18033760	     35.77526136	      0.62439610	     15.60816811	    -30.57188969	     -7.49999987	     24.08464613	     -1.62051688	      2.21722270	     49.50432180	      0.86401341	      9.88211348	    -17.75317926	     -7.49999987	     -7.14426171	      1.42301091	     -0.48749252	     84.32791399	    -36.29146257	     24.18689650	    117.48176643	     92.85055480	     94.54952067	    -39.58467363	     44.59449184	    124.53672145	     88.82180056
      1.39583330	    -19.95195750	     -0.31352280	      4.25632207	     -0.63852893	      1.22460729	     -0.07475578	     14.69904228	      0.85832226	      2.88098827	     35.31498761	      0.61636281	     14.36861202	    -29.42414222	     -7.49999987	     22.89846027	     -1.80922905	      1.30733839	     48.90391082	      0.85353426	      8.78617107	    -16.47765610	     -7.49999987	     -6.30963626	      1.21338044	     -0.38230654	     84.02009957	    -36.27135568	     25.86384546	    116.67577519	     92.47048757	     95.18461036	    -40.49442104	     46.52013993	    125.04638111	     88.82385691
      1.40000000	    -19.37226864	     -0.14700524	      4.02299812	     -0.62101463	      1.22779253	     -0.07106817	     12.51328710	      0.68033355	      2.71167882	     33.88692378	      0.59143839	     11.86699972	    -28.65570369	     -7.49999987	     20.67951013	     -2.16100049	      0.18041195	     47.64193202	      0.83150858	      7.08615209	    -15.14520875	     -7.49999987	     -5.28141305	      0.75896364	     -0.43916096	     82.41590005	    -36.28651327	     26.00189118	    116.56758394	     92.08772904	     94.07254067	    -40.59223167	     47.73411688	    125.79466483	     88.75840051
      1.40416670	    -19.45594974	      0.19614129	      3.54697635	     -0.60938558	      1.23467515	     -0.07190831	     11.22282435	      0.14008991	      2.40445398	     32.52019866	      0.56758454	      9.43079511	    -27.86849237	     -7.49999987	     19.08831396	     -2.25757813	     -1.05360561	     45.67399240	      0.79716155	      4.63499884	    -15.05492048	     -7.49999987	     -3.85635994	      0.20710197	     -0.36950268	     80.33013392	    -36.27867169	     25.62343098	    117.43746506	     91.67020532	     92.19256027	    -40.26047164	     48.27004476	    127.03197817	     88.61560955
      1.40833330	    -19.32331105	      0.59951543	      3.60649523	     -0.59757119	      1.24604044	     -0.08117689	      9.11550092	     -1.04139543	      1.18660015	     29.59150923	      0.51646927	      6.51538504	    -25.91556351	     -7.49999987	     17.14524550	     -1.59962293	     -1.73767661	     43.06755250	      0.75167059	      1.61569016	    -15.14063499	     -7.49999987	     -2.55098951	     -0.01089966	     -0.34361639	     77.59509786	    -37.13370464	     24.65846098	    117.87142417	     90.51241998	     88.99710077	    -38.92411285	     47.75750266	    127.27097245	     87.87304702
      1.41250000	    -19.71568049	      0.81455325	      3.97355567	     -0.58595294	      1.25177352	     -0.08230725	      7.96412195	     -1.79932081	      0.13984402	     27.32040567	      0.47683103	      2.91575268	    -25.30048213	     -7.49999987	     15.84226504	     -1.09533271	     -1.83073810	     40.56168815	      0.70793501	     -1.13505243	    -15.20752481	     -7.49999987	     -1.19216308	     -0.17832630	     -0.15394725	     75.14272556	    -38.85682957	     23.64616132	    119.20627804	     90.33335156	     86.80183177	    -37.45516520	     46.57191147	    127.96638472	     87.94948165
      1.41666670	    -19.79983817	      0.87824083	      4.24193279	     -0.58003765	      1.25751473	     -0.08688134	      7.00321075	     -2.56513562	     -1.25869039	     25.57333358	      0.44633887	     -1.27244915	    -24.99617890	     -7.49999987	     15.08053240	     -0.73429679	     -1.57374948	     39.21491759	      0.68442943	     -4.26572456	    -15.32211164	     -7.49999987	     -0.34130495	      0.15698586	      0.31642861	     74.06012937	    -40.85813356	     23.88060295	    120.16618937	     90.15775321	     86.18645583	    -35.56918391	     46.78774178	    127.24821387	     88.01737003
      1.42083330	    -19.87989052	      0.58749392	      4.57772252	     -0.57938212	      1.26205344	     -0.08757567	      7.19077466	     -2.70617849	     -2.08683656	     25.19727855	      0.43977547	     -4.68414049	    -24.68554739	     -7.49999987	     15.30230342	     -1.00273286	     -0.65852000	     38.43462789	      0.67081080	     -8.15152458	    -15.39631804	     -7.49999987	      0.23608217	      0.78922364	      0.65484945	     73.45153085	    -42.10927616	     23.95672017	    119.11441303	     90.04262139	     85.89803016	    -34.45604852	     47.54786627	    126.20273387	     88.11167155
      1.42500000	    -19.75568214	      0.61377346	      4.40705481	     -0.57339245	      1.27273253	     -0.08375379	      6.75577294	     -2.88717495	     -2.79542437	     24.14087651	      0.42133778	     -8.34405310	    -23.67296381	     -7.49999987	     15.19756859	     -1.30305767	     -0.34289085	     37.88164436	      0.66115942	    -10.87031057	    -14.84733598	     -7.49999987	      0.43094621	      0.96033009	      1.10796490	     72.67496065	    -42.48849308	     24.27959493	    118.86526727	     89.91107393	     85.18175203	    -34.53735981	     48.49455101	    126.27166812	     88.15611290
      1.42916670	    -19.70979359	      0.47141880	      4.43297237	     -0.56739794	      1.27712353	     -0.08004846	      6.73437310	     -2.53226981	     -3.24963792	     24.02822957	      0.41937172	    -10.34404796	    -22.51457126	     -7.49999987	     15.50315154	     -2.05744200	     -0.34371101	     38.01207575	      0.66343588	    -13.53969032	    -13.82774051	     -7.49999987	      0.42109314	      0.93254612	      1.15897781	     72.19414496	    -42.74300146	     24.33148300	    118.55646935	     89.85477964	     84.99551965	    -34.57549816	     49.03557583	    126.54363044	     88.18725711
      1.43333330	    -19.75319068	      0.56950319	      4.50590482	     -0.55578017	      1.27776061	     -0.08042028	      6.07514812	     -2.60486242	     -3.24238884	     23.33630296	      0.40729532	    -11.79341910	    -20.78528958	     -7.49999987	     15.53183960	     -2.35502612	     -0.15765967	     38.06143039	      0.66429728	    -16.53496459	    -14.17066465	     -7.49999987	      1.33328080	      0.53515045	      1.01859108	     71.86501178	    -42.54481866	     24.19141780	    117.71184657	     89.65469981	     84.78016188	    -34.54093049	     50.31374681	    126.61897486	     88.24858658
      1.43750000	    -20.30413207	      0.61563321	      4.67803912	     -0.55471124	      1.28369347	     -0.08084245	      6.63531211	     -2.91577235	     -3.34584819	     23.15257493	      0.40408866	    -13.22511494	    -19.33206213	     -7.49999987	     16.50929104	     -2.61359773	     -0.36574118	     38.60485954	      0.67378191	    -19.79757099	    -14.26605319	     -7.49999987	      2.36801535	      0.21608861	      0.63601794	     71.29168580	    -41.96979883	     23.19516897	    118.09630560	     89.33434180	     84.60644615	    -34.62063954	     51.27445395	    126.70639141	     88.24277654
      1.44166670	    -20.71940351	      0.94870290	      4.46371032	     -0.54298351	      1.28698916	     -0.07267637	      6.33142752	     -3.06444022	     -2.69237243	     21.86977521	      0.38169958	    -14.29136561	    -16.90584301	     -7.49999987	     16.27164727	     -3.04122648	     -1.62113735	     38.08312261	      0.66467588	    -21.18727797	    -12.94914068	     -7.49999987	      3.87072738	     -0.83902636	      0.41124709	     69.38849770	    -40.94207816	     22.13274607	    118.21048163	     89.15039023	     84.00948134	    -34.89461154	     52.12796526	    126.39990012	     88.23506446
